<svg width="86" height="86" viewBox="0 0 86 86" fill="none" xmlns="http://www.w3.org/2000/svg">
<path d="M42.9293 27.1096C45.3511 27.1096 47.3397 25.143 47.3397 22.7211V5.77646C47.3397 3.35457 45.3511 1.38794 42.9293 1.38794C40.5075 1.38794 38.5189 3.35457 38.5189 5.77646V22.7211C38.5189 25.1418 40.5073 27.1096 42.9293 27.1096Z" stroke="#3D8B97" stroke-width="2"/>
<path d="M42.9293 84.7204C45.3513 84.7204 47.3397 82.7526 47.3397 80.3319V63.3873C47.3397 60.9654 45.3511 58.9988 42.9293 58.9988C40.5075 58.9988 38.5189 60.9654 38.5189 63.3873V80.3319C38.5189 82.7526 40.5073 84.7204 42.9293 84.7204Z" stroke="#3D8B97" stroke-width="2"/>
<path d="M26.8751 43.0543C26.8751 40.6324 24.8864 38.6658 22.4646 38.6658H5.41043C2.98987 38.6658 1 40.6322 1 43.0543C1 45.4764 2.98987 47.4428 5.41043 47.4428H22.4646C24.8864 47.4428 26.8751 45.4762 26.8751 43.0543Z" stroke="#3D8B97" stroke-width="2"/>
<path d="M84.8586 43.0543C84.8586 40.6322 82.8687 38.6658 80.4482 38.6658H63.394C60.9722 38.6658 58.9835 40.6324 58.9835 43.0543C58.9835 45.4762 60.9722 47.4428 63.394 47.4428H80.4482C82.8687 47.4428 84.8586 45.4764 84.8586 43.0543Z" stroke="#3D8B97" stroke-width="2"/>
<path d="M19.5209 72.5184L19.5204 72.5188C17.8034 74.2235 15.0039 74.2235 13.2868 72.5188C11.5666 70.811 11.567 68.0158 13.2865 66.3073L19.5209 72.5184ZM19.5209 72.5184L31.5762 60.5355C31.5763 60.5354 31.5764 60.5352 31.5766 60.5351C33.2962 58.8274 33.2961 56.0323 31.5763 54.3248L19.5209 72.5184ZM25.344 54.3252L13.2865 66.3073L31.5762 54.3247C29.861 52.6199 27.0592 52.62 25.3442 54.325C25.3442 54.3251 25.3441 54.3252 25.344 54.3252Z" stroke="#FFB55D" stroke-width="2"/>
<path d="M66.3423 13.5883L66.3418 13.5887L54.2855 25.5727C54.2854 25.5728 54.2852 25.573 54.2851 25.5731C52.5653 27.281 52.5659 30.0749 54.2852 31.7832L54.2855 31.7835C56.0016 33.4872 58.8021 33.4872 60.5181 31.7835L60.5185 31.7831L72.5752 19.8008L72.5754 19.8006C74.2946 18.0912 74.295 15.2974 72.5751 13.5886L72.5749 13.5883C70.8588 11.8846 68.0583 11.8846 66.3423 13.5883Z" stroke="#FFB55D" stroke-width="2"/>
<path d="M72.5753 66.3072L72.5753 66.3073C74.2947 68.0157 74.2952 70.8107 72.5753 72.5186L72.5753 66.3072ZM72.5753 66.3072L60.5147 54.3252C60.5146 54.3251 60.5145 54.325 60.5144 54.3249M72.5753 66.3072L60.5144 54.3249M66.3421 72.5186L66.3421 72.5185L54.2826 60.5355C54.2825 60.5354 54.2824 60.5353 54.2823 60.5352C52.5627 58.8277 52.5626 56.0328 54.282 54.3252L66.3421 72.5186ZM66.3421 72.5186C68.0581 74.2235 70.8589 74.2236 72.575 72.5188L66.3421 72.5186ZM60.5144 54.3249C58.7994 52.62 55.9977 52.6199 54.2826 54.3247L60.5144 54.3249Z" stroke="#FFB55D" stroke-width="2"/>
<path d="M13.283 19.8006L13.2834 19.801L25.3442 31.7803L25.3444 31.7804C27.0594 33.4831 29.861 33.4831 31.576 31.7804C33.2959 30.0729 33.2963 27.2762 31.5757 25.5694L19.5164 13.5886L19.5162 13.5883C17.8001 11.8846 14.9996 11.8846 13.2836 13.5883L13.2833 13.5886C11.5635 15.2974 11.5639 18.0912 13.283 19.8006Z" stroke="#FFB55D" stroke-width="2"/>
</svg>
