<svg width="489" height="563" viewBox="0 0 489 563" fill="none" xmlns="http://www.w3.org/2000/svg">
<g clip-path="url(#clip0_164_352)">
<path fill-rule="evenodd" clip-rule="evenodd" d="M18.2422 487.517H52.3381V497.474H18.2422V487.517Z" fill="#62C9D9"/>
<path fill-rule="evenodd" clip-rule="evenodd" d="M13.0489 479.443C15.6298 479.443 18.1526 480.209 20.2985 481.642C22.4444 483.076 24.1169 485.113 25.1045 487.497C26.0922 489.881 26.3506 492.504 25.8471 495.035C25.3436 497.565 24.1008 499.89 22.2759 501.715C20.451 503.539 18.1259 504.782 15.5946 505.285C13.0634 505.788 10.4397 505.53 8.0553 504.543C5.67093 503.555 3.63298 501.883 2.19914 499.738C0.765311 497.592 0 495.07 0 492.489C0.00290138 489.03 1.37861 485.714 3.82513 483.268C6.27165 480.822 9.58905 479.446 13.0489 479.443V479.443Z" fill="#F6832D"/>
<path fill-rule="evenodd" clip-rule="evenodd" d="M18.2422 527.915H52.3381V537.883H18.2422V527.915Z" fill="#62C9D9"/>
<path fill-rule="evenodd" clip-rule="evenodd" d="M13.0489 519.853C15.6298 519.853 18.1526 520.618 20.2985 522.051C22.4444 523.485 24.1169 525.522 25.1045 527.906C26.0922 530.29 26.3506 532.913 25.8471 535.444C25.3436 537.975 24.1008 540.299 22.2759 542.124C20.451 543.948 18.1259 545.191 15.5946 545.694C13.0634 546.198 10.4397 545.939 8.0553 544.952C5.67093 543.964 3.63298 542.292 2.19914 540.147C0.765311 538.001 0 535.479 0 532.899C0.00290138 529.439 1.37861 526.123 3.82513 523.677C6.27165 521.231 9.58905 519.855 13.0489 519.853V519.853Z" fill="#F6832D"/>
<path fill-rule="evenodd" clip-rule="evenodd" d="M159.633 461.347H83.4538C74.3987 461.373 65.7219 464.981 59.3189 471.383C52.9159 477.784 49.3073 486.459 49.2812 495.513V528.276C49.3044 537.331 52.9117 546.009 59.315 552.413C65.7183 558.817 74.3968 562.426 83.4538 562.452H159.633C168.689 562.429 177.367 558.822 183.771 552.42C190.174 546.018 193.782 537.341 193.805 528.287V495.513C193.779 486.459 190.171 477.784 183.768 471.383C177.365 464.981 168.688 461.373 159.633 461.347V461.347Z" fill="#2F909F"/>
<path fill-rule="evenodd" clip-rule="evenodd" d="M134.466 471.337C126.448 471.337 118.611 473.714 111.944 478.168C105.278 482.621 100.082 488.951 97.0138 496.357C93.9456 503.763 93.1427 511.912 94.7069 519.774C96.2711 527.636 100.132 534.858 105.801 540.526C111.471 546.194 118.694 550.054 126.558 551.618C134.421 553.182 142.572 552.379 149.979 549.312C157.387 546.244 163.718 541.049 168.172 534.384C172.627 527.719 175.004 519.883 175.004 511.867C175.004 501.118 170.733 490.809 163.131 483.208C155.529 475.608 145.218 471.337 134.466 471.337V471.337Z" fill="#2E2E2E"/>
<path fill-rule="evenodd" clip-rule="evenodd" d="M134.466 498.208C131.757 498.208 129.11 499.011 126.857 500.515C124.605 502.02 122.85 504.158 121.813 506.66C120.777 509.162 120.506 511.915 121.034 514.571C121.562 517.227 122.867 519.667 124.782 521.582C126.698 523.497 129.138 524.801 131.794 525.329C134.451 525.858 137.205 525.586 139.707 524.55C142.21 523.514 144.349 521.759 145.853 519.507C147.358 517.255 148.161 514.608 148.161 511.9C148.161 508.268 146.719 504.786 144.15 502.218C141.582 499.65 138.098 498.208 134.466 498.208Z" fill="#62C9D9"/>
<path fill-rule="evenodd" clip-rule="evenodd" d="M134.466 509.994C134.09 509.996 133.722 510.11 133.41 510.321C133.098 510.531 132.855 510.83 132.713 511.178C132.57 511.527 132.534 511.91 132.609 512.279C132.684 512.648 132.866 512.986 133.133 513.252C133.4 513.517 133.74 513.698 134.109 513.77C134.479 513.843 134.862 513.805 135.209 513.66C135.557 513.515 135.854 513.271 136.063 512.958C136.272 512.645 136.384 512.277 136.384 511.9C136.384 511.649 136.334 511.4 136.237 511.168C136.141 510.936 135.999 510.726 135.821 510.548C135.643 510.371 135.432 510.231 135.199 510.136C134.967 510.041 134.717 509.993 134.466 509.994V509.994Z" fill="black"/>
<path fill-rule="evenodd" clip-rule="evenodd" d="M81.3831 483.255H65.9457C64.8793 483.255 63.8566 482.831 63.1025 482.078C62.3484 481.324 61.9248 480.301 61.9248 479.235C61.9248 478.169 62.3484 477.146 63.1025 476.392C63.8566 475.638 64.8793 475.215 65.9457 475.215H81.3831C82.4506 475.215 83.4745 475.638 84.2303 476.392C84.9861 477.145 85.4121 478.168 85.415 479.235C85.4121 480.302 84.9861 481.325 84.2303 482.078C83.4745 482.832 82.4506 483.255 81.3831 483.255V483.255Z" fill="#62C9D9"/>
<path fill-rule="evenodd" clip-rule="evenodd" d="M81.3831 496.718H65.9457C64.9141 496.664 63.9426 496.216 63.2315 495.467C62.5204 494.718 62.1239 493.725 62.1239 492.692C62.1239 491.659 62.5204 490.666 63.2315 489.917C63.9426 489.168 64.9141 488.72 65.9457 488.667H81.3831C82.4505 488.666 83.4744 489.09 84.2302 489.843C84.986 490.597 85.4121 491.619 85.415 492.687C85.4121 493.755 84.9864 494.778 84.2309 495.534C83.4754 496.289 82.4515 496.715 81.3831 496.718V496.718Z" fill="#62C9D9"/>
<path fill-rule="evenodd" clip-rule="evenodd" d="M81.3831 510.169H65.9457C64.8792 510.164 63.8582 509.737 63.105 508.982C62.3519 508.227 61.9277 507.205 61.9248 506.138V506.138C61.9277 505.073 62.3522 504.052 63.1057 503.299C63.8591 502.546 64.8802 502.121 65.9457 502.118H81.3831C82.4506 502.118 83.4745 502.541 84.2303 503.295C84.9861 504.049 85.4121 505.071 85.415 506.138C85.4121 507.206 84.9864 508.23 84.2309 508.985C83.4754 509.741 82.4516 510.166 81.3831 510.169V510.169Z" fill="#62C9D9"/>
<path fill-rule="evenodd" clip-rule="evenodd" d="M76.157 548.793C73.3212 548.782 70.5525 547.93 68.2012 546.345C65.8498 544.76 64.0217 542.514 62.9481 539.89C61.8744 537.265 61.6036 534.382 62.1699 531.604C62.7361 528.826 64.114 526.278 66.1291 524.283C68.1443 522.289 70.706 520.936 73.4902 520.398C76.2743 519.86 79.1556 520.159 81.7694 521.258C84.3833 522.358 86.6121 524.208 88.1738 526.574C89.7355 528.941 90.5599 531.717 90.5425 534.552C90.5165 538.346 88.988 541.974 86.2917 544.643C83.5954 547.312 79.9512 548.804 76.157 548.793V548.793Z" fill="#CE6111"/>
<path fill-rule="evenodd" clip-rule="evenodd" d="M142.629 322.9L89.0197 438.552H207.588C214.061 438.854 220.169 441.637 224.643 446.324C229.117 451.011 231.613 457.24 231.613 463.719C231.613 470.197 229.117 476.427 224.643 481.114C220.169 485.8 214.061 488.584 207.588 488.886H170.852V495.25H223.661C253.243 495.25 278.618 461.873 255.434 434.894L142.629 322.9Z" fill="#4AB3C3"/>
<path fill-rule="evenodd" clip-rule="evenodd" d="M89.0196 298.068C75.123 298.068 61.5385 302.188 49.9839 309.907C38.4292 317.626 29.4236 328.597 24.1056 341.433C18.7876 354.269 17.3961 368.393 20.1072 382.02C22.8183 395.647 29.5101 408.164 39.3365 417.988C49.1629 427.812 61.6825 434.503 75.3121 437.213C88.9417 439.924 103.069 438.533 115.908 433.216C128.747 427.899 139.72 418.895 147.441 407.343C155.161 395.791 159.282 382.209 159.282 368.316C159.282 359.09 157.465 349.956 153.934 341.433C150.403 332.91 145.227 325.166 138.703 318.643C132.178 312.12 124.433 306.945 115.908 303.415C107.383 299.885 98.2466 298.068 89.0196 298.068V298.068Z" fill="#176673"/>
<path fill-rule="evenodd" clip-rule="evenodd" d="M102.594 327.019C92.8085 327.019 83.2424 329.92 75.1057 335.356C66.969 340.791 60.6272 348.517 56.8823 357.556C53.1374 366.596 52.1576 376.542 54.0667 386.138C55.9759 395.734 60.6882 404.548 67.6079 411.466C74.5276 418.384 83.3438 423.096 92.9417 425.005C102.54 426.913 112.488 425.934 121.529 422.19C130.57 418.445 138.298 412.105 143.734 403.97C149.171 395.835 152.073 386.271 152.073 376.487C152.073 369.991 150.793 363.558 148.307 357.556C145.82 351.555 142.176 346.101 137.581 341.508C132.987 336.914 127.532 333.271 121.529 330.785C115.526 328.299 109.092 327.019 102.594 327.019V327.019Z" fill="#F6832D"/>
<path fill-rule="evenodd" clip-rule="evenodd" d="M113.321 424.783C120.014 423.287 126.324 420.417 131.85 416.355C137.377 412.294 142 407.13 145.426 401.189C148.853 395.249 151.008 388.662 151.756 381.846C152.505 375.029 151.829 368.132 149.772 361.59C143.076 363.082 136.763 365.949 131.234 370.009C125.705 374.069 121.08 379.234 117.653 385.176C114.225 391.117 112.07 397.706 111.325 404.524C110.579 411.343 111.259 418.241 113.321 424.783Z" fill="#2E2E2E"/>
<path fill-rule="evenodd" clip-rule="evenodd" d="M164.936 484.986C163.561 484.984 162.216 485.389 161.072 486.152C159.928 486.914 159.036 487.999 158.509 489.268C157.982 490.537 157.844 491.935 158.111 493.283C158.379 494.631 159.041 495.869 160.013 496.841C160.985 497.813 162.224 498.475 163.572 498.743C164.921 499.01 166.318 498.872 167.588 498.345C168.858 497.818 169.942 496.926 170.705 495.782C171.467 494.638 171.873 493.294 171.871 491.92C171.871 490.081 171.14 488.317 169.84 487.017C168.539 485.716 166.775 484.986 164.936 484.986Z" fill="#CE6111"/>
<path fill-rule="evenodd" clip-rule="evenodd" d="M156.105 291.945C155.236 287.644 153.111 283.699 149.999 280.606C146.886 277.513 142.927 275.412 138.621 274.57C134.315 273.727 129.855 274.179 125.806 275.87C121.757 277.561 118.301 280.415 115.874 284.07C113.447 287.724 112.158 292.017 112.171 296.404C112.185 300.791 113.498 305.076 115.947 308.716C118.396 312.357 121.869 315.189 125.928 316.856C129.987 318.523 134.449 318.949 138.75 318.081C141.606 317.504 144.321 316.371 146.739 314.745C149.156 313.119 151.23 311.033 152.842 308.606C154.453 306.179 155.571 303.459 156.131 300.6C156.691 297.741 156.682 294.8 156.105 291.945Z" fill="#F6832D"/>
<path fill-rule="evenodd" clip-rule="evenodd" d="M131.453 254.887C132.292 252.373 132.101 249.628 130.923 247.254C129.745 244.879 127.674 243.067 125.164 242.214L70.7007 223.921C68.1855 223.086 65.4422 223.28 63.0694 224.46C60.6966 225.64 58.8869 227.71 58.0353 230.219V230.219C57.1977 232.732 57.3904 235.475 58.5712 237.846C59.752 240.217 61.8246 242.024 64.3351 242.871L118.788 261.175C121.302 262.01 124.044 261.818 126.416 260.64C128.789 259.462 130.599 257.394 131.453 254.887Z" fill="#62C9D9"/>
<path fill-rule="evenodd" clip-rule="evenodd" d="M88.4279 240.428C90.3386 234.666 89.8941 228.383 87.1913 222.948C84.4884 217.513 79.7464 213.366 73.9986 211.411L48.5472 202.856L33.9425 246.31L59.3939 254.854C65.1567 256.768 71.4426 256.327 76.8814 253.627C82.3201 250.927 86.4706 246.186 88.4279 240.439V240.428Z" fill="#227B89"/>
<path fill-rule="evenodd" clip-rule="evenodd" d="M55.7893 229.463C58.6036 221.085 58.6592 212.027 55.9481 203.615C53.2369 195.203 47.9016 187.881 40.7244 182.723L15.525 257.615C24.3611 257.837 33.0361 255.224 40.2783 250.158C47.5204 245.091 52.9487 237.839 55.7674 229.463H55.7893Z" fill="#F6832D"/>
<path fill-rule="evenodd" clip-rule="evenodd" d="M63.5353 232.059C64.0013 230.671 64.8686 229.452 66.0275 228.556C67.1865 227.661 68.585 227.129 70.0462 227.028C71.5075 226.927 72.966 227.261 74.2371 227.989C75.5082 228.717 76.535 229.805 77.1876 231.116C77.8402 232.427 78.0893 233.902 77.9035 235.355C77.7176 236.807 77.1051 238.172 76.1434 239.277C75.1817 240.381 73.914 241.176 72.5006 241.56C71.0871 241.945 69.5915 241.901 68.2027 241.436C67.2795 241.128 66.4262 240.641 65.6916 240.003C64.9571 239.364 64.3557 238.587 63.9221 237.716C63.4885 236.845 63.2312 235.897 63.1648 234.926C63.0984 233.956 63.2243 232.981 63.5353 232.059V232.059Z" fill="black"/>
<path fill-rule="evenodd" clip-rule="evenodd" d="M135.858 276.62C140.159 275.751 144.106 273.625 147.199 270.513C150.292 267.401 152.393 263.442 153.235 259.136C154.077 254.83 153.624 250.371 151.931 246.323C150.239 242.275 147.384 238.82 143.727 236.394C140.07 233.969 135.776 232.682 131.388 232.696C126.999 232.711 122.714 234.026 119.073 236.476C115.433 238.926 112.601 242.4 110.935 246.459C109.269 250.518 108.845 254.98 109.716 259.28C110.293 262.135 111.427 264.849 113.053 267.265C114.679 269.682 116.765 271.755 119.193 273.366C121.621 274.976 124.342 276.092 127.201 276.651C130.061 277.209 133.002 277.199 135.858 276.62Z" fill="#FF6966"/>
<path fill-rule="evenodd" clip-rule="evenodd" d="M182.783 263.07L252.542 286.511L248.236 299.338L178.467 275.897L182.783 263.07Z" fill="#F6832D"/>
<path fill-rule="evenodd" clip-rule="evenodd" d="M167.401 294.749L108.982 275.12C108.23 274.863 107.435 274.757 106.643 274.808C105.85 274.86 105.075 275.067 104.363 275.418C103.65 275.769 103.014 276.257 102.491 276.854C101.967 277.452 101.567 278.146 101.313 278.899V278.899C100.797 280.417 100.906 282.077 101.615 283.515C102.324 284.953 103.575 286.05 105.093 286.566L163.522 306.196C164.275 306.451 165.071 306.554 165.865 306.501C166.658 306.448 167.433 306.238 168.145 305.885C168.858 305.532 169.493 305.042 170.016 304.443C170.539 303.844 170.938 303.148 171.192 302.395V302.395C171.693 300.883 171.575 299.234 170.865 297.808C170.155 296.381 168.91 295.294 167.401 294.782V294.749Z" fill="#4AB3C3"/>
<path fill-rule="evenodd" clip-rule="evenodd" d="M171.783 303.304L100.316 279.326C98.9163 278.855 97.6236 278.113 96.5115 277.142C95.3994 276.172 94.4896 274.991 93.8342 273.668C93.1789 272.346 92.7909 270.907 92.6923 269.434C92.5937 267.962 92.7865 266.484 93.2597 265.086L110.965 212.43C111.914 209.616 113.94 207.292 116.6 205.968C119.259 204.643 122.335 204.427 125.153 205.365L196.632 229.387C199.456 230.34 201.786 232.376 203.109 235.046C204.432 237.717 204.641 240.803 203.688 243.627L185.983 296.283C185.512 297.682 184.77 298.974 183.799 300.087C182.828 301.199 181.648 302.109 180.325 302.765C179.002 303.421 177.563 303.81 176.09 303.91C174.617 304.01 173.139 303.819 171.739 303.348L171.783 303.304Z" fill="#227B89"/>
<path fill-rule="evenodd" clip-rule="evenodd" d="M208.18 184.596C201.006 182.191 193.281 181.967 185.98 183.951C178.679 185.935 172.13 190.04 167.162 195.745C162.194 201.449 159.029 208.499 158.068 216.002C157.106 223.505 158.392 231.125 161.761 237.898C165.131 244.671 170.433 250.292 176.998 254.053C183.563 257.813 191.095 259.543 198.644 259.023C206.192 258.504 213.416 255.759 219.404 251.135C225.392 246.511 229.874 240.216 232.284 233.045C233.884 228.282 234.531 223.249 234.186 218.236C233.841 213.223 232.511 208.327 230.272 203.827C228.034 199.328 224.931 195.314 221.14 192.014C217.349 188.714 212.945 186.193 208.18 184.596V184.596Z" fill="#0F5560"/>
<path fill-rule="evenodd" clip-rule="evenodd" d="M202.362 201.914C198.613 200.655 194.575 200.536 190.758 201.572C186.942 202.608 183.518 204.752 180.92 207.733C178.322 210.714 176.667 214.398 176.163 218.32C175.66 222.242 176.331 226.224 178.092 229.765C179.852 233.305 182.623 236.244 186.055 238.21C189.486 240.176 193.423 241.08 197.369 240.809C201.314 240.537 205.09 239.102 208.22 236.685C211.349 234.268 213.692 230.977 214.951 227.229C216.639 222.203 216.261 216.712 213.9 211.965C211.539 207.218 207.389 203.602 202.362 201.914V201.914Z" fill="black"/>
<path fill-rule="evenodd" clip-rule="evenodd" d="M143.001 162.699C135.828 160.294 128.102 160.07 120.801 162.054C113.5 164.038 106.952 168.143 101.983 173.848C97.015 179.553 93.8502 186.602 92.8889 194.105C91.9275 201.608 93.2128 209.228 96.5823 216.001C99.9518 222.774 105.254 228.395 111.819 232.156C118.384 235.916 125.917 237.646 133.465 237.126C141.013 236.607 148.238 233.862 154.225 229.238C160.213 224.614 164.695 218.319 167.105 211.148C168.706 206.385 169.352 201.353 169.007 196.339C168.662 191.326 167.332 186.43 165.094 181.93C162.855 177.431 159.752 173.417 155.961 170.117C152.171 166.817 147.767 164.296 143.001 162.699Z" fill="#0F5560"/>
<path fill-rule="evenodd" clip-rule="evenodd" d="M137.183 180.017C133.437 178.761 129.402 178.644 125.589 179.681C121.775 180.717 118.355 182.861 115.76 185.84C113.165 188.819 111.512 192.501 111.009 196.42C110.507 200.339 111.177 204.318 112.937 207.856C114.696 211.394 117.465 214.33 120.893 216.295C124.321 218.26 128.255 219.164 132.198 218.894C136.14 218.624 139.914 217.191 143.042 214.777C146.17 212.363 148.512 209.076 149.772 205.332C151.46 200.306 151.082 194.815 148.722 190.068C146.361 185.321 142.21 181.705 137.183 180.017Z" fill="black"/>
<path fill-rule="evenodd" clip-rule="evenodd" d="M142.848 252.445L116.268 243.517C114.776 243.023 113.148 243.138 111.741 243.838C110.333 244.537 109.259 245.765 108.752 247.252V247.252C108.255 248.744 108.368 250.372 109.069 251.781C109.769 253.189 110.998 254.262 112.488 254.767L139.057 263.694C140.551 264.192 142.181 264.078 143.591 263.378C145.001 262.679 146.077 261.449 146.584 259.959V259.959C147.078 258.467 146.963 256.84 146.263 255.433C145.563 254.025 144.336 252.951 142.848 252.445V252.445Z" fill="#CE6111"/>
<path fill-rule="evenodd" clip-rule="evenodd" d="M133.184 269.533L128.298 267.89C127.449 267.608 126.524 267.673 125.723 268.072C124.923 268.47 124.312 269.168 124.025 270.015L122.382 274.9C122.096 275.75 122.16 276.678 122.559 277.481C122.957 278.284 123.658 278.896 124.507 279.183L129.394 280.826C130.243 281.111 131.172 281.048 131.975 280.649C132.778 280.251 133.39 279.55 133.677 278.701L135.321 273.816C135.602 272.965 135.536 272.036 135.136 271.234C134.735 270.432 134.034 269.82 133.184 269.533Z" fill="#CE6111"/>
<path fill-rule="evenodd" clip-rule="evenodd" d="M118.525 264.603L113.649 262.96C112.798 262.675 111.868 262.738 111.063 263.136C110.258 263.535 109.644 264.235 109.355 265.085L107.722 269.971C107.437 270.822 107.5 271.752 107.898 272.556C108.297 273.361 108.997 273.975 109.848 274.265L114.734 275.897C115.584 276.182 116.512 276.118 117.316 275.72C118.119 275.322 118.731 274.621 119.018 273.772L120.661 268.886C120.8 268.461 120.853 268.013 120.817 267.568C120.782 267.122 120.659 266.688 120.455 266.29C120.252 265.892 119.972 265.538 119.631 265.249C119.29 264.959 118.896 264.74 118.47 264.603H118.525Z" fill="#CE6111"/>
<path fill-rule="evenodd" clip-rule="evenodd" d="M173.24 262.709C170.675 261.845 167.912 261.761 165.299 262.467C162.686 263.174 160.341 264.639 158.562 266.678C156.782 268.717 155.647 271.237 155.3 273.921C154.953 276.605 155.41 279.331 156.613 281.755C157.816 284.18 159.711 286.193 162.059 287.54C164.406 288.887 167.101 289.508 169.801 289.324C172.502 289.14 175.087 288.16 177.23 286.507C179.373 284.854 180.978 282.603 181.841 280.038C182.992 276.599 182.734 272.845 181.122 269.597C179.509 266.349 176.676 263.872 173.24 262.709V262.709Z" fill="#CE6111"/>
<path fill-rule="evenodd" clip-rule="evenodd" d="M198.834 212.408C197.204 211.859 195.447 211.806 193.786 212.257C192.125 212.707 190.636 213.641 189.507 214.939C188.377 216.237 187.659 217.84 187.442 219.547C187.226 221.254 187.521 222.986 188.291 224.525C189.06 226.063 190.269 227.339 191.765 228.19C193.26 229.041 194.975 229.428 196.691 229.304C198.407 229.179 200.047 228.548 201.404 227.49C202.761 226.432 203.773 224.995 204.312 223.362C205.035 221.183 204.864 218.806 203.837 216.753C202.81 214.7 201.011 213.138 198.834 212.408Z" fill="#F6832D"/>
<path fill-rule="evenodd" clip-rule="evenodd" d="M195.997 220.864C195.184 220.604 194.302 220.671 193.538 221.049C192.773 221.427 192.185 222.087 191.899 222.891L189.434 230.252C189.174 231.064 189.24 231.946 189.618 232.71C189.996 233.475 190.657 234.062 191.461 234.349V234.349C192.273 234.605 193.153 234.535 193.916 234.155C194.678 233.775 195.263 233.114 195.547 232.311L198.023 224.95C198.28 224.139 198.212 223.26 197.834 222.498C197.456 221.736 196.798 221.151 195.997 220.864Z" fill="#F6832D"/>
<path fill-rule="evenodd" clip-rule="evenodd" d="M129.043 190.215C127.359 190.556 125.815 191.389 124.604 192.607C123.394 193.826 122.572 195.376 122.242 197.061C121.912 198.747 122.09 200.492 122.752 202.077C123.414 203.661 124.531 205.014 125.962 205.964C127.393 206.915 129.073 207.419 130.791 207.415C132.509 207.411 134.187 206.897 135.613 205.94C137.039 204.982 138.149 203.624 138.803 202.036C139.457 200.447 139.625 198.701 139.287 197.018C139.062 195.898 138.618 194.834 137.982 193.886C137.345 192.938 136.527 192.124 135.576 191.493C134.624 190.861 133.557 190.423 132.436 190.204C131.315 189.984 130.162 189.988 129.043 190.215V190.215Z" fill="#F6832D"/>
<path fill-rule="evenodd" clip-rule="evenodd" d="M130.818 198.956C129.983 199.138 129.252 199.638 128.78 200.35C128.307 201.061 128.131 201.929 128.287 202.768L129.832 210.381C129.915 210.797 130.08 211.191 130.317 211.543C130.553 211.894 130.857 212.196 131.21 212.43C131.563 212.664 131.959 212.826 132.375 212.907C132.791 212.987 133.218 212.985 133.633 212.901V212.901C134.466 212.719 135.195 212.221 135.667 211.512C136.139 210.802 136.318 209.938 136.164 209.1L134.62 201.487C134.437 200.655 133.939 199.926 133.23 199.454C132.521 198.981 131.656 198.803 130.818 198.956Z" fill="#F6832D"/>
<path fill-rule="evenodd" clip-rule="evenodd" d="M249.847 277.025C252.641 277.963 255.094 279.708 256.895 282.04C258.697 284.372 259.767 287.186 259.969 290.125C260.172 293.065 259.498 295.999 258.032 298.555C256.567 301.112 254.376 303.176 251.737 304.488C249.098 305.8 246.129 306.299 243.205 305.924C240.282 305.548 237.536 304.315 235.314 302.379C233.092 300.443 231.495 297.891 230.723 295.048C229.952 292.204 230.041 289.195 230.98 286.402C232.239 282.657 234.933 279.566 238.471 277.808C242.009 276.049 246.101 275.768 249.847 277.025Z" fill="#4AB3C3"/>
<path fill-rule="evenodd" clip-rule="evenodd" d="M445.635 365.61L477.605 371.656C480.371 372.19 482.813 373.796 484.4 376.123C485.986 378.45 486.588 381.309 486.075 384.078C485.543 386.842 483.94 389.284 481.614 390.871C479.288 392.457 476.429 393.059 473.661 392.546L441.691 386.499L445.635 365.61V365.61Z" fill="#F6832D"/>
<path fill-rule="evenodd" clip-rule="evenodd" d="M432.126 323.722L377.673 313.425C369.86 311.959 361.784 313.647 355.213 318.12C348.642 322.594 344.111 329.488 342.613 337.294V337.294C341.159 345.096 342.853 353.156 347.324 359.714C351.795 366.272 358.681 370.794 366.476 372.292L420.94 382.588L424.895 361.699L370.431 351.403C369.309 351.187 368.24 350.752 367.286 350.123C366.332 349.495 365.511 348.684 364.87 347.738C364.229 346.792 363.78 345.729 363.55 344.61C363.32 343.491 363.313 342.337 363.529 341.215C363.745 340.093 364.179 339.025 364.808 338.071C365.437 337.117 366.248 336.296 367.194 335.655C368.14 335.014 369.203 334.566 370.323 334.336C371.442 334.106 372.596 334.099 373.718 334.314L428.182 344.611L432.126 323.722V323.722Z" fill="#073941"/>
<path fill-rule="evenodd" clip-rule="evenodd" d="M440.825 423.742L388.235 409.502L405.415 318.661L432.071 323.7C439.133 325.057 445.37 329.153 449.422 335.092C453.474 341.031 455.012 348.332 453.699 355.401L440.771 423.72L440.825 423.742Z" fill="#2F909F"/>
<path fill-rule="evenodd" clip-rule="evenodd" d="M398.282 356.661L426.264 361.951C429.032 362.483 431.476 364.088 433.063 366.415C434.65 368.743 435.25 371.604 434.734 374.373C434.202 377.14 432.597 379.583 430.269 381.17C427.941 382.757 425.079 383.357 422.309 382.841L394.338 377.55L398.282 356.661Z" fill="#F6832D"/>
<path fill-rule="evenodd" clip-rule="evenodd" d="M341.178 467.942L336.292 493.771L345.758 495.557C359.333 498.125 373.374 495.196 384.789 487.414C396.205 479.633 404.062 467.636 406.631 454.063C407.902 447.343 411.791 441.404 417.443 437.551C423.094 433.698 430.045 432.248 436.766 433.519C443.487 434.79 449.428 438.678 453.281 444.329C457.135 449.979 458.586 456.928 457.314 463.648V463.648L444.627 530.73L470.506 535.615L483.193 468.544C484.465 461.824 484.4 454.92 483.002 448.225C481.605 441.53 478.902 435.176 475.048 429.525C471.194 423.875 466.265 419.039 460.541 415.293C454.818 411.547 448.412 408.966 441.691 407.695L390.503 398.012L380.818 449.189C380.189 452.517 378.91 455.689 377.055 458.523C375.2 461.357 372.805 463.798 370.006 465.706C367.207 467.615 364.059 468.953 360.743 469.645C357.426 470.337 354.006 470.368 350.677 469.738L341.211 467.953L341.178 467.942Z" fill="#0F5560"/>
<path fill-rule="evenodd" clip-rule="evenodd" d="M444.66 530.325L466.572 534.454C471.199 535.347 475.424 537.68 478.644 541.119C481.863 544.558 483.912 548.928 484.497 553.602L441.789 545.507L444.66 530.303V530.325Z" fill="#F6832D"/>
<path fill-rule="evenodd" clip-rule="evenodd" d="M487.28 553.174L439.072 544.05C438.523 543.947 437.956 544.066 437.494 544.38C437.032 544.694 436.713 545.178 436.607 545.726V545.726C436.555 545.998 436.557 546.277 436.613 546.549C436.668 546.82 436.777 547.077 436.933 547.306C437.089 547.535 437.288 547.731 437.52 547.883C437.752 548.035 438.011 548.139 438.283 548.19L486.546 557.315C486.818 557.367 487.097 557.366 487.369 557.31C487.64 557.254 487.897 557.145 488.126 556.989C488.356 556.833 488.552 556.634 488.703 556.402C488.855 556.171 488.96 555.911 489.011 555.639C489.063 555.367 489.061 555.088 489.005 554.816C488.949 554.545 488.84 554.288 488.685 554.059C488.529 553.83 488.33 553.634 488.098 553.482C487.866 553.33 487.607 553.226 487.335 553.174H487.28Z" fill="#F6832D"/>
<path fill-rule="evenodd" clip-rule="evenodd" d="M342.033 468.095L337.902 489.937C337.012 494.566 334.68 498.794 331.24 502.017C327.8 505.24 323.428 507.292 318.751 507.88L326.825 465.225L342.033 468.095Z" fill="#F6832D"/>
<path fill-rule="evenodd" clip-rule="evenodd" d="M319.156 510.706L328.283 462.454C328.382 461.904 328.261 461.337 327.945 460.875C327.629 460.414 327.144 460.096 326.595 459.989C326.046 459.886 325.479 460.005 325.017 460.319C324.555 460.633 324.236 461.117 324.13 461.665L315.004 509.928C314.904 510.478 315.025 511.046 315.341 511.507C315.657 511.968 316.142 512.287 316.691 512.393V512.393C317.241 512.493 317.808 512.371 318.27 512.055C318.731 511.74 319.05 511.255 319.156 510.706V510.706Z" fill="#F6832D"/>
<path fill-rule="evenodd" clip-rule="evenodd" d="M465.06 262.139L384.236 246.858C380.083 246.091 375.795 246.996 372.306 249.376C368.817 251.756 366.41 255.418 365.611 259.565V259.565C364.843 263.719 365.75 268.008 368.133 271.496C370.516 274.984 374.182 277.389 378.331 278.187L459.155 293.467C463.308 294.234 467.597 293.329 471.085 290.949C474.574 288.569 476.981 284.907 477.781 280.761V280.761C478.548 276.607 477.641 272.318 475.258 268.83C472.875 265.341 469.21 262.936 465.06 262.139V262.139Z" fill="#176673"/>
<path fill-rule="evenodd" clip-rule="evenodd" d="M428.719 232.979C420.907 231.504 412.832 232.377 405.517 235.49C398.202 238.602 391.973 243.813 387.62 250.464C383.267 257.115 380.984 264.907 381.06 272.855C381.136 280.803 383.567 288.55 388.047 295.117C392.527 301.683 398.853 306.774 406.227 309.746C413.601 312.718 421.69 313.437 429.472 311.812C437.255 310.188 444.381 306.293 449.949 300.619C455.517 294.946 459.277 287.749 460.755 279.939C462.733 269.465 460.469 258.633 454.462 249.827C448.454 241.021 439.195 234.961 428.719 232.979V232.979Z" fill="#4AB3C3"/>
<path fill-rule="evenodd" clip-rule="evenodd" d="M425.125 266.323C424.656 268.832 425.2 271.425 426.637 273.535C428.074 275.645 430.287 277.1 432.794 277.584L443.564 279.621C444.807 279.856 446.085 279.844 447.323 279.586C448.562 279.328 449.737 278.828 450.783 278.116C451.828 277.403 452.723 276.492 453.416 275.433C454.109 274.375 454.587 273.191 454.822 271.948C455.057 270.705 455.045 269.428 454.787 268.19C454.528 266.952 454.029 265.776 453.316 264.731C452.603 263.686 451.692 262.792 450.633 262.099C449.575 261.406 448.39 260.928 447.147 260.693L436.377 258.655C433.869 258.187 431.277 258.731 429.168 260.167C427.06 261.604 425.606 263.818 425.125 266.323V266.323Z" fill="#2E2E2E"/>
<path fill-rule="evenodd" clip-rule="evenodd" d="M390.185 259.718C389.717 262.227 390.26 264.82 391.697 266.93C393.134 269.04 395.348 270.495 397.855 270.979L408.625 273.016C411.135 273.491 413.732 272.95 415.843 271.511C417.954 270.072 419.407 267.853 419.882 265.343C420.357 262.833 419.816 260.237 418.376 258.126C416.937 256.015 414.718 254.563 412.207 254.088L401.437 252.05C398.929 251.582 396.337 252.126 394.229 253.562C392.12 254.999 390.666 257.213 390.185 259.718Z" fill="#2E2E2E"/>
<path fill-rule="evenodd" clip-rule="evenodd" d="M443.334 287.935C440.879 292.945 436.846 297.011 431.856 299.509C426.866 302.006 421.194 302.796 415.711 301.759C410.228 300.722 405.237 297.913 401.505 293.766C397.772 289.618 395.505 284.36 395.05 278.8L399.367 279.621C399.973 284.04 401.952 288.156 405.026 291.389C408.1 294.621 412.112 296.806 416.495 297.634C420.878 298.462 425.411 297.892 429.453 296.005C433.494 294.117 436.84 291.007 439.018 287.114L443.334 287.935V287.935Z" fill="#073941"/>
<path d="M381.278 248.72C404.363 210.097 463.023 220.897 465.959 265.973" stroke="#176673" stroke-width="2" stroke-miterlimit="10"/>
<path fill-rule="evenodd" clip-rule="evenodd" d="M341.956 339.671L329.904 388.109L341.594 391.023L353.646 342.585C354.404 339.54 355.754 336.675 357.619 334.152C359.484 331.629 361.828 329.498 364.517 327.88C367.206 326.263 370.187 325.191 373.291 324.726C376.394 324.26 379.558 324.411 382.604 325.168C385.649 325.925 388.515 327.275 391.039 329.14C393.562 331.005 395.694 333.348 397.311 336.037C398.929 338.725 400.001 341.705 400.467 344.808C400.932 347.911 400.782 351.075 400.024 354.119L397.033 366.169L408.713 369.071L411.704 357.088C413.975 347.844 412.497 338.077 407.591 329.919C402.685 321.761 394.75 315.875 385.518 313.546C376.272 311.275 366.503 312.753 358.343 317.658C350.184 322.563 344.296 330.496 341.967 339.726L341.956 339.671Z" fill="#176673"/>
<path fill-rule="evenodd" clip-rule="evenodd" d="M319.528 479.651L305.789 534.815C303.397 544.38 297.309 552.607 288.86 557.691C280.41 562.775 270.289 564.302 260.715 561.937V561.937C251.163 559.536 242.952 553.45 237.876 545.011C232.801 536.572 231.274 526.467 233.631 516.906L255.193 430.304L291.261 439.286L278.99 488.371C278.198 491.606 278.717 495.024 280.435 497.878C282.153 500.733 284.93 502.792 288.161 503.608V503.608C291.394 504.4 294.81 503.882 297.663 502.167C300.516 500.451 302.575 497.677 303.39 494.45L307.772 476.748L319.452 479.651H319.528Z" fill="#2F909F"/>
<path fill-rule="evenodd" clip-rule="evenodd" d="M198.549 423.074C196.258 432.298 196.754 441.994 199.974 450.936C203.194 459.878 208.994 467.665 216.64 473.311C224.287 478.958 233.436 482.211 242.931 482.659C252.427 483.107 261.842 480.73 269.986 475.829C278.13 470.927 284.638 463.721 288.686 455.122C292.734 446.523 294.141 436.917 292.729 427.519C291.317 418.12 287.149 409.351 280.753 402.321C274.356 395.291 266.018 390.315 256.793 388.022C250.666 386.498 244.3 386.195 238.056 387.132C231.813 388.069 225.815 390.227 220.407 393.482C214.998 396.738 210.283 401.027 206.533 406.104C202.783 411.182 200.07 416.948 198.549 423.074Z" fill="#0F5560"/>
<path fill-rule="evenodd" clip-rule="evenodd" d="M229.315 442.265C228.18 446.823 228.422 451.615 230.011 456.035C231.6 460.454 234.465 464.304 238.242 467.096C242.019 469.889 246.539 471.499 251.232 471.723C255.924 471.947 260.578 470.775 264.604 468.355C268.63 465.935 271.848 462.375 273.85 458.127C275.853 453.879 276.551 449.132 275.856 444.487C275.161 439.842 273.104 435.507 269.944 432.031C266.785 428.555 262.666 426.094 258.108 424.958C251.994 423.438 245.527 424.407 240.128 427.653C234.729 430.898 230.839 436.154 229.315 442.265V442.265Z" fill="#2E2E2E"/>
<path fill-rule="evenodd" clip-rule="evenodd" d="M391.84 368.282C391.874 369.969 392.575 371.573 393.788 372.744C395.001 373.916 396.628 374.561 398.315 374.537L411.463 374.296C413.148 374.259 414.751 373.558 415.922 372.346C417.094 371.133 417.739 369.508 417.719 367.822V367.822C417.684 366.134 416.982 364.529 415.767 363.357C414.551 362.184 412.921 361.541 411.232 361.568L398.085 361.798C396.398 361.835 394.795 362.538 393.625 363.753C392.455 364.968 391.813 366.596 391.84 368.282V368.282Z" fill="#62C9D9"/>
<path fill-rule="evenodd" clip-rule="evenodd" d="M319.036 452.803L340.554 458.16C341.101 458.296 341.67 458.323 342.228 458.239C342.786 458.155 343.321 457.962 343.805 457.671C344.288 457.38 344.709 456.997 345.044 456.543C345.379 456.09 345.622 455.574 345.758 455.027C345.894 454.48 345.921 453.911 345.837 453.353C345.753 452.796 345.56 452.26 345.269 451.777C344.978 451.294 344.595 450.872 344.141 450.537C343.687 450.202 343.172 449.96 342.624 449.824L321.117 444.468C319.678 444.108 318.325 443.468 317.133 442.586C315.941 441.703 314.935 440.594 314.172 439.323C313.409 438.051 312.904 436.642 312.686 435.175C312.468 433.709 312.54 432.214 312.9 430.775C313.26 429.337 313.899 427.983 314.782 426.792C315.665 425.6 316.774 424.594 318.046 423.832C319.318 423.069 320.727 422.564 322.194 422.345C323.661 422.127 325.157 422.2 326.595 422.56L348.113 427.916C349.199 428.13 350.325 427.919 351.258 427.326C352.191 426.732 352.861 425.802 353.127 424.729C353.393 423.656 353.236 422.521 352.688 421.561C352.14 420.6 351.244 419.887 350.184 419.569L328.666 414.213C325.76 413.486 323.262 411.636 321.721 409.068C320.958 407.797 320.453 406.387 320.235 404.921C320.016 403.454 320.089 401.959 320.449 400.52C320.809 399.082 321.448 397.728 322.331 396.537C323.214 395.345 324.323 394.34 325.595 393.577C328.163 392.036 331.238 391.579 334.144 392.305L355.662 397.65C356.768 397.925 357.937 397.749 358.913 397.161C359.889 396.574 360.592 395.623 360.867 394.517C361.141 393.412 360.965 392.243 360.378 391.267C359.79 390.291 358.839 389.589 357.733 389.314L336.215 383.958C332.21 382.96 327.993 383.235 324.151 384.743C320.309 386.252 317.032 388.92 314.777 392.376C312.521 395.832 311.398 399.905 311.565 404.029C311.731 408.152 313.178 412.121 315.705 415.385C312.97 416.615 310.549 418.449 308.626 420.75C306.703 423.051 305.327 425.759 304.602 428.669C303.878 431.578 303.823 434.615 304.442 437.549C305.062 440.483 306.339 443.238 308.178 445.607C304.414 447.302 301.272 450.129 299.19 453.694C297.107 457.258 296.189 461.383 296.561 465.494C296.934 469.605 298.579 473.498 301.268 476.63C303.957 479.763 307.556 481.979 311.563 482.971L333.081 488.327C333.629 488.463 334.198 488.49 334.756 488.406C335.313 488.322 335.849 488.129 336.333 487.838C336.816 487.547 337.237 487.164 337.572 486.71C337.907 486.257 338.15 485.742 338.286 485.194C338.422 484.647 338.448 484.078 338.365 483.52C338.281 482.963 338.088 482.427 337.797 481.944C337.506 481.461 337.122 481.04 336.669 480.705C336.215 480.369 335.7 480.127 335.152 479.991L313.645 474.635C310.739 473.908 308.241 472.058 306.7 469.49C305.159 466.922 304.701 463.847 305.428 460.942C306.154 458.037 308.005 455.539 310.574 453.999C313.142 452.458 316.217 452 319.123 452.727L319.036 452.803Z" fill="#073941"/>
<path fill-rule="evenodd" clip-rule="evenodd" d="M347.456 391.253C346.958 393.268 347.069 395.384 347.774 397.336C348.479 399.287 349.747 400.986 351.418 402.217C353.089 403.448 355.087 404.156 357.16 404.252C359.233 404.348 361.288 403.828 363.065 402.757C364.843 401.685 366.262 400.111 367.145 398.233C368.028 396.355 368.334 394.258 368.025 392.206C367.716 390.155 366.805 388.24 365.408 386.706C364.011 385.172 362.19 384.086 360.176 383.585C358.837 383.253 357.446 383.188 356.082 383.393C354.718 383.598 353.408 384.071 352.226 384.783C351.045 385.495 350.015 386.433 349.197 387.543C348.378 388.654 347.787 389.914 347.456 391.253V391.253Z" fill="#F6832D"/>
<path fill-rule="evenodd" clip-rule="evenodd" d="M339.929 421.475C339.431 423.489 339.542 425.606 340.247 427.557C340.953 429.509 342.221 431.207 343.891 432.438C345.562 433.67 347.56 434.378 349.633 434.474C351.706 434.57 353.761 434.05 355.538 432.978C357.316 431.907 358.736 430.333 359.618 428.455C360.501 426.577 360.807 424.48 360.498 422.428C360.189 420.376 359.278 418.462 357.881 416.928C356.484 415.393 354.663 414.307 352.649 413.807C351.31 413.475 349.919 413.409 348.555 413.615C347.191 413.82 345.881 414.292 344.699 415.005C343.518 415.717 342.489 416.655 341.67 417.765C340.851 418.875 340.26 420.136 339.929 421.475V421.475Z" fill="#F6832D"/>
<path fill-rule="evenodd" clip-rule="evenodd" d="M332.402 451.697C331.904 453.711 332.015 455.828 332.72 457.779C333.426 459.731 334.694 461.43 336.364 462.661C338.035 463.892 340.033 464.6 342.106 464.696C344.179 464.792 346.234 464.272 348.011 463.2C349.789 462.129 351.209 460.555 352.091 458.677C352.974 456.799 353.28 454.702 352.971 452.65C352.662 450.598 351.751 448.684 350.354 447.15C348.957 445.615 347.136 444.529 345.122 444.029C343.783 443.697 342.392 443.631 341.028 443.837C339.664 444.042 338.354 444.515 337.172 445.227C335.991 445.939 334.962 446.877 334.143 447.987C333.325 449.097 332.733 450.358 332.402 451.697V451.697Z" fill="#F6832D"/>
<path fill-rule="evenodd" clip-rule="evenodd" d="M324.875 481.974C324.377 483.988 324.488 486.105 325.193 488.056C325.899 490.008 327.167 491.706 328.837 492.938C330.508 494.169 332.506 494.877 334.579 494.973C336.652 495.069 338.707 494.549 340.484 493.477C342.262 492.406 343.682 490.832 344.564 488.954C345.447 487.076 345.753 484.979 345.444 482.927C345.135 480.875 344.224 478.961 342.827 477.427C341.43 475.892 339.609 474.806 337.595 474.306C336.257 473.974 334.865 473.908 333.501 474.114C332.137 474.319 330.827 474.792 329.645 475.504C328.464 476.216 327.435 477.154 326.616 478.264C325.798 479.374 325.206 480.635 324.875 481.974Z" fill="#F6832D"/>
<path fill-rule="evenodd" clip-rule="evenodd" d="M301.122 25.5884H291.897V44.0348H301.122C303.567 44.029 305.91 43.0555 307.639 41.327C309.368 39.5986 310.341 37.256 310.347 34.8116C310.341 32.3672 309.368 30.0246 307.639 28.2962C305.91 26.5678 303.567 25.5942 301.122 25.5884Z" fill="#176673"/>
<path fill-rule="evenodd" clip-rule="evenodd" d="M301.122 47.4194H291.897V65.8768H301.122C303.569 65.871 305.913 64.896 307.643 63.1651C309.372 61.4343 310.344 59.0889 310.347 56.6427V56.6427C310.341 54.1983 309.368 51.8557 307.639 50.1272C305.91 48.3988 303.567 47.4252 301.122 47.4194Z" fill="#0F5560"/>
<path fill-rule="evenodd" clip-rule="evenodd" d="M228.843 25.5884H238.069V44.0348H228.843C226.399 44.029 224.056 43.0555 222.327 41.327C220.598 39.5986 219.624 37.256 219.618 34.8116C219.624 32.3672 220.598 30.0246 222.327 28.2962C224.056 26.5678 226.399 25.5942 228.843 25.5884Z" fill="#0F5560"/>
<path fill-rule="evenodd" clip-rule="evenodd" d="M228.843 47.4194H238.069V65.8768H228.843C226.397 65.871 224.052 64.896 222.323 63.1651C220.594 61.4343 219.621 59.0889 219.618 56.6427V56.6427C219.624 54.1983 220.598 51.8557 222.327 50.1272C224.056 48.3988 226.399 47.4252 228.843 47.4194Z" fill="#0F5560"/>
<path fill-rule="evenodd" clip-rule="evenodd" d="M264.988 266.838C244.577 266.838 225.776 272.228 210.788 281.276C207.374 284.947 203.281 287.923 198.736 290.039C184.788 302.274 176.297 318.41 176.297 336.045C176.297 374.308 216.003 405.329 265.043 405.329C314.083 405.329 353.723 374.308 353.723 336.045C353.723 318.366 345.243 302.231 331.285 290.039C326.741 287.92 322.649 284.945 319.233 281.276C304.244 272.228 285.444 266.838 265.043 266.838H264.988Z" fill="#227B89"/>
<path fill-rule="evenodd" clip-rule="evenodd" d="M264.988 0C257.855 0.0202321 251.02 2.86229 245.976 7.90524C240.932 12.9482 238.089 19.7821 238.069 26.9139V63.3467C238.086 70.4804 240.927 77.3171 245.972 82.3624C251.016 87.4077 257.853 90.2512 264.988 90.2715V90.2715C272.121 90.2483 278.956 87.4035 283.998 82.3585C289.04 77.3135 291.88 70.4785 291.897 63.3467V26.9139C291.877 19.784 289.035 12.9517 283.994 7.90909C278.952 2.86645 272.12 0.0231204 264.988 0Z" fill="#F6832D"/>
<path fill-rule="evenodd" clip-rule="evenodd" d="M264.988 52.9293C268.249 52.9315 271.436 53.9002 274.146 55.713C276.856 57.5258 278.968 60.1012 280.214 63.1138C281.461 66.1264 281.786 69.4407 281.148 72.6379C280.511 75.8351 278.939 78.7716 276.633 81.076C274.326 83.3805 271.388 84.9495 268.19 85.5847C264.992 86.2199 261.677 85.8928 258.665 84.6447C255.652 83.3967 253.078 81.2836 251.266 78.5728C249.455 75.862 248.488 72.6751 248.488 69.415C248.481 67.2471 248.903 65.0992 249.73 63.0951C250.556 61.091 251.772 59.2703 253.305 57.7378C254.839 56.2054 256.661 54.9916 258.666 54.1663C260.671 53.341 262.82 52.9206 264.988 52.9293Z" fill="#4AB3C3"/>
<path fill-rule="evenodd" clip-rule="evenodd" d="M264.988 59.294C266.99 59.2961 268.946 59.8916 270.61 61.005C272.273 62.1185 273.569 63.7 274.333 65.5497C275.098 67.3993 275.297 69.434 274.905 71.3967C274.513 73.3593 273.548 75.1618 272.132 76.5762C270.716 77.9906 268.912 78.9535 266.948 79.3432C264.985 79.7328 262.95 79.5317 261.101 78.7653C259.251 77.9989 257.671 76.7017 256.559 75.0374C255.447 73.3732 254.854 71.4168 254.854 69.4154C254.854 68.0853 255.116 66.7683 255.625 65.5396C256.135 64.3108 256.881 63.1946 257.823 62.2546C258.764 61.3146 259.881 60.5692 261.111 60.0612C262.34 59.5532 263.658 59.2925 264.988 59.294Z" fill="#0F5560"/>
<path fill-rule="evenodd" clip-rule="evenodd" d="M240.128 177.969C240.128 185.198 236.984 190.489 231.276 194.685C219.41 201.05 209.547 210.588 202.789 222.234C208.398 225.692 213.029 230.527 216.243 236.278C219.457 242.03 221.147 248.507 221.152 255.096V255.096C221.128 263.484 218.382 271.638 213.326 278.332C208.27 285.026 201.178 289.899 193.115 292.218V327.633C193.173 346.678 200.766 364.926 214.237 378.392C227.708 391.857 245.961 399.447 265.01 399.501V399.501C284.058 399.447 302.31 391.857 315.779 378.391C329.248 364.925 336.839 346.677 336.894 327.633V292.175C328.831 289.855 321.739 284.982 316.683 278.288C311.627 271.594 308.881 263.44 308.857 255.052C308.862 248.464 310.552 241.986 313.766 236.234C316.98 230.483 321.611 225.648 327.22 222.19C320.462 210.544 310.6 201.006 298.734 194.641C293.091 191.431 289.881 184.234 289.881 177.925V142.106C289.881 132.959 283.855 126.299 277.424 120.603C266.796 111.183 268.144 90.0853 277.829 79.7119H252.224C261.92 90.0853 263.257 111.183 252.629 120.603C246.209 126.299 240.172 132.959 240.172 142.106V177.925L240.128 177.969Z" fill="#4AB3C3"/>
<path fill-rule="evenodd" clip-rule="evenodd" d="M264.988 292.153C257.259 292.153 249.703 294.444 243.276 298.738C236.849 303.031 231.84 309.133 228.882 316.273C225.924 323.413 225.15 331.269 226.658 338.848C228.166 346.428 231.888 353.39 237.354 358.854C242.819 364.319 249.783 368.04 257.364 369.548C264.945 371.055 272.803 370.281 279.944 367.324C287.085 364.367 293.189 359.359 297.483 352.933C301.777 346.508 304.069 338.953 304.069 331.226C304.066 320.864 299.948 310.927 292.619 303.6C285.291 296.273 275.352 292.156 264.988 292.153Z" fill="#F6832D"/>
<path fill-rule="evenodd" clip-rule="evenodd" d="M264.988 304.728C259.746 304.726 254.621 306.278 250.261 309.188C245.901 312.099 242.502 316.236 240.495 321.078C238.487 325.919 237.961 331.248 238.982 336.388C240.003 341.529 242.527 346.252 246.233 349.958C249.939 353.665 254.661 356.19 259.803 357.213C264.944 358.237 270.274 357.712 275.117 355.707C279.961 353.702 284.1 350.306 287.013 345.948C289.926 341.59 291.481 336.467 291.481 331.226C291.481 324.2 288.69 317.462 283.722 312.493C278.754 307.524 272.015 304.731 264.988 304.728V304.728Z" fill="black"/>
<path fill-rule="evenodd" clip-rule="evenodd" d="M279.67 192.888H275.824V359.191H279.67V192.888Z" fill="white"/>
<path fill-rule="evenodd" clip-rule="evenodd" d="M277.752 188.912C276.966 188.912 276.198 189.145 275.544 189.581C274.89 190.017 274.38 190.638 274.079 191.364C273.778 192.09 273.698 192.889 273.851 193.66C274.003 194.431 274.381 195.139 274.936 195.696C275.491 196.252 276.199 196.632 276.97 196.786C277.741 196.941 278.54 196.864 279.267 196.565C279.994 196.265 280.616 195.757 281.054 195.105C281.492 194.453 281.727 193.685 281.729 192.899C281.731 192.376 281.629 191.858 281.43 191.374C281.231 190.89 280.938 190.451 280.568 190.08C280.199 189.71 279.76 189.416 279.277 189.215C278.794 189.015 278.276 188.912 277.752 188.912V188.912Z" fill="white"/>
<path fill-rule="evenodd" clip-rule="evenodd" d="M266.906 192.888H263.06V359.191H266.906V192.888Z" fill="white"/>
<path fill-rule="evenodd" clip-rule="evenodd" d="M264.988 188.912C264.201 188.909 263.432 189.141 262.777 189.576C262.122 190.011 261.61 190.63 261.307 191.356C261.004 192.082 260.923 192.881 261.074 193.653C261.226 194.425 261.602 195.134 262.157 195.692C262.712 196.249 263.419 196.63 264.191 196.786C264.962 196.941 265.761 196.865 266.489 196.566C267.216 196.267 267.839 195.759 268.278 195.106C268.717 194.453 268.952 193.685 268.954 192.899C268.956 192.377 268.854 191.859 268.656 191.376C268.457 190.893 268.165 190.454 267.797 190.084C267.429 189.714 266.991 189.42 266.509 189.219C266.027 189.017 265.51 188.913 264.988 188.912V188.912Z" fill="white"/>
<path fill-rule="evenodd" clip-rule="evenodd" d="M254.142 192.888H250.296V359.191H254.142V192.888Z" fill="white"/>
<path fill-rule="evenodd" clip-rule="evenodd" d="M252.224 188.912C251.438 188.909 250.668 189.141 250.013 189.576C249.358 190.011 248.846 190.63 248.543 191.356C248.24 192.082 248.159 192.881 248.31 193.653C248.462 194.425 248.839 195.134 249.393 195.692C249.948 196.249 250.656 196.63 251.427 196.786C252.198 196.941 252.998 196.865 253.725 196.566C254.453 196.267 255.075 195.759 255.514 195.106C255.953 194.453 256.188 193.685 256.19 192.899C256.192 192.377 256.09 191.859 255.892 191.376C255.693 190.893 255.402 190.454 255.033 190.084C254.665 189.714 254.227 189.42 253.745 189.219C253.263 189.017 252.746 188.913 252.224 188.912Z" fill="white"/>
</g>
<defs>
<clipPath id="clip0_164_352">
<rect width="489" height="563" fill="white"/>
</clipPath>
</defs>
</svg>
