<svg width="31" height="31" viewBox="0 0 31 31" fill="none" xmlns="http://www.w3.org/2000/svg">
<path d="M31 15.5949C31 6.9808 24.0599 -0.00195312 15.5 -0.00195312C6.93628 -1.56249e-05 -0.00384521 6.9808 -0.00384521 15.5969C-0.00384521 23.3798 5.66528 29.8317 13.0743 31.0019V20.1035H9.14115V15.5969H13.0782V12.1578C13.0782 8.24986 15.3935 6.09148 18.9333 6.09148C20.6305 6.09148 22.4033 6.39567 22.4033 6.39567V10.2319H20.4484C18.5245 10.2319 17.9238 11.4351 17.9238 12.6693V15.5949H22.2212L21.5353 20.1015H17.9219V31C25.3309 29.8297 31 23.3779 31 15.5949Z" fill="#B8B8B8"/>
</svg>
