<svg id="Camada_1" data-name="Camada 1" xmlns="http://www.w3.org/2000/svg" viewBox="0 0 264 279"><defs><style>.cls-1{fill:#176673;}.cls-2{fill:#f6832d;}</style></defs><title>forma</title><path class="cls-1" d="M584.56,493.76A76,76,0,0,0,562,345.17v89A89.69,89.69,0,0,0,584.56,493.76Z" transform="translate(-486 -245)"/><path class="cls-1" d="M660,247a88.1,88.1,0,0,1,88,88v99a88.1,88.1,0,0,1-88,88h-8a88.1,88.1,0,0,1-63.88-27.48A78,78,0,0,0,564,343v-8a88.1,88.1,0,0,1,88-88h8m0-2h-8a90,90,0,0,0-90,90v10a76,76,0,0,1,22.56,148.59A89.77,89.77,0,0,0,652,524h8a90,90,0,0,0,90-90V335a90,90,0,0,0-90-90Z" transform="translate(-486 -245)"/><path class="cls-2" d="M562,345a76,76,0,1,0,22.56,148.59A89.67,89.67,0,0,1,562,434Z" transform="translate(-486 -245)"/></svg>