<svg width="87" height="87" viewBox="0 0 87 87" fill="none" xmlns="http://www.w3.org/2000/svg">
<path d="M59.6238 34.89V35.89H60.6238H67.4457H68.4457V34.89C68.4457 16.5514 53.4887 1.69556 35.043 1.69556C16.5963 1.69556 1.64032 16.5515 1.64032 34.89C1.64032 53.2369 16.5965 68.0845 35.043 68.0845H43.1456L39.4599 71.7528L38.7474 72.462L39.4603 73.1708L44.2776 77.9602L44.9825 78.661L45.6875 77.9605L56.9182 66.802C56.9184 66.8017 56.9187 66.8015 56.9189 66.8012C58.6469 65.0901 58.6545 62.3051 56.9188 60.5906C56.9182 60.59 56.9176 60.5895 56.9171 60.5889L45.6876 49.4296L44.9827 48.7291L44.2778 49.4296L39.4543 54.2231L38.7402 54.9328L39.4546 55.6421L43.1445 59.3054H35.043C21.4593 59.3054 10.4622 48.3727 10.4622 34.889C10.4622 21.4104 21.4594 10.4736 35.043 10.4736C48.6296 10.4736 59.6238 21.4113 59.6238 34.89Z" stroke="#3D8B97" stroke-width="2"/>
<path d="M51.2594 46.5784L50.3222 47.2708L51.1488 48.0921L56.0624 52.9741L56.6267 53.5348L57.3 53.1109C59.2618 51.8758 61.5592 51.1389 64.0352 51.1389C71.0167 51.1389 76.679 56.7786 76.679 63.695C76.679 70.6132 71.0168 76.2511 64.0352 76.2511C61.5602 76.2511 59.2618 75.5141 57.3 74.279L56.6267 73.8551L56.0624 74.4158L51.1488 79.2978L50.3222 80.1191L51.2594 80.8115C54.8276 83.4478 59.2406 85.0281 64.0342 85.0281C75.8861 85.0281 85.4988 75.4853 85.4988 63.695C85.4988 51.9078 75.8862 42.3618 64.0342 42.3618C59.2406 42.3618 54.8276 43.9421 51.2594 46.5784Z" stroke="#FFB55D" stroke-width="2"/>
</svg>
