<svg width="89" height="89" viewBox="0 0 89 89" fill="none" xmlns="http://www.w3.org/2000/svg">
<path d="M51.6403 11.8745H50.0223L50.7458 13.3217L54.8387 21.5082L55.1151 22.061H55.7332H62.789L59.1568 29.2432L58.9299 29.6919L59.1548 30.1417L63.1198 38.0715L64.0089 39.8497L64.9065 38.0758L77.4298 13.326L78.1643 11.8745H76.5375H51.6403Z" stroke="#FFB55D" stroke-width="2"/>
<path d="M33.2202 22.061H33.8382L34.1146 21.5082L38.2076 13.3217L38.9311 11.8745H37.3131H12.4158H10.7891L11.5236 13.326L24.0469 38.0758L24.9447 39.8502L25.8337 38.0713L29.7967 30.1415L30.0213 29.692L29.7947 29.2435L26.1657 22.061H33.2202Z" stroke="#FFB55D" stroke-width="2"/>
<path d="M31.1141 49.7165L30.8893 50.1664L31.1163 50.6151L43.1388 74.3762L44.0311 76.1396L44.9234 74.3762L56.9468 50.6151L57.1739 50.1663L56.949 49.7164L53.1237 42.0653L52.2346 40.2869L51.337 42.061L44.0311 56.5008L36.7252 42.061L35.8275 40.2867L34.9384 42.0654L31.1141 49.7165Z" stroke="#FFB55D" stroke-width="2"/>
<path d="M45.3712 4.24225L44.4768 2.45335L43.5823 4.24225L2.65306 86.1022L1.92946 87.5495H3.54749H85.4061H87.0241L86.3005 86.1022L45.3712 4.24225ZM44.4763 22.8298L71.7406 77.3642H17.212L44.4763 22.8298Z" stroke="#3D8B97" stroke-width="2"/>
</svg>
