<svg width="30" height="30" viewBox="0 0 30 30" fill="none" xmlns="http://www.w3.org/2000/svg">
<path d="M3 15C3 14.1714 3.6714 13.5 4.5 13.5C5.3304 13.5 6 14.1714 6 15C6 15.828 5.3304 16.5 4.5 16.5C3.6714 16.5 3 15.828 3 15Z" fill="#FFB55D"/>
<path d="M6 22.5003C6 21.672 6.6714 21 7.5 21C8.3304 21 9 21.6714 9 22.5C9 23.3286 8.3304 24 7.5 24C6.6714 24.0003 6 23.3286 6 22.5003Z" fill="#FFB55D"/>
<path d="M7.5 6C8.3292 6 9 6.6708 9 7.5C9 8.3304 8.3292 9 7.5 9C6.6714 9 6 8.3304 6 7.5C6 6.6717 6.6714 6 7.5 6Z" fill="#FFB55D"/>
<path d="M9.9999 27L27 15L9.9999 3.00001L12.9999 15L9.9999 27ZM13.2462 22.26L14.8116 15.9999H17.1471C17.4372 16.9653 18.1347 17.754 19.0392 18.171L13.2462 22.26ZM20.4999 13.5C21.3279 13.5 21.9999 14.1717 21.9999 15C21.9999 15.828 21.3279 16.5 20.4999 16.5C19.6716 16.5 18.9999 15.828 18.9999 15C18.9999 14.1717 19.6719 13.5 20.4999 13.5ZM19.0389 11.8281C18.1347 12.2463 17.4369 13.0344 17.1468 14.0001H14.8113L13.2456 7.73941L19.0389 11.8281Z" fill="#227B89"/>
</svg>
