<svg width="76" height="87" viewBox="0 0 76 87" fill="none" xmlns="http://www.w3.org/2000/svg">
<path d="M25.6272 45.8545L25.121 46.1419V46.7241V49.9016V50.4839L25.6275 50.7713L28.418 52.3547L28.9116 52.6348L29.4052 52.3546L38.3961 47.2505L47.3895 52.3547L47.8831 52.6348L48.3767 52.3546L51.1722 50.768L51.6785 50.4805V49.8983V46.7249V46.1425L51.172 45.8551L42.1948 40.7623V30.5736V29.9913L41.6884 29.7039L38.8913 28.1164L38.3976 27.8362L37.904 28.1165L35.1077 29.704L34.6014 29.9914V30.5736V40.7592L25.6272 45.8545Z" stroke="#FFB55D" stroke-width="2"/>
<path d="M38.6806 1.58668L38.1869 1.30637L37.6932 1.58668L1.88005 21.9198L1.37378 22.2073V22.7894V63.4557V64.0379L1.88005 64.3253L37.6932 84.6585L38.1869 84.9388L38.6806 84.6585L74.4835 64.3314L74.7023 64.2072L74.8363 63.9942L74.8465 63.978L75 63.7339V63.4455V22.7894V22.2073L74.4938 21.9198L38.6806 1.58668ZM38.6805 17.239L38.1868 16.9589L37.6931 17.2392L19.6112 27.5066L14.741 24.7407L38.1869 11.4334L61.631 24.7408L56.7675 27.5036L38.6805 17.239ZM15.1547 55.6285V56.2106L15.6609 56.4981L33.7386 66.7625V72.288L10.2642 58.9614V32.3265L15.1547 35.1038V55.6285ZM61.2161 35.1038L66.1065 32.3265V58.9626L42.6342 72.288V66.7626L60.7097 56.5022L61.2161 56.2148V55.6325V35.1038ZM38.1868 59.1584L24.0513 51.1381V35.11L38.186 27.0858L52.3256 35.1101V51.1341L38.1868 59.1584Z" stroke="#3D8B97" stroke-width="2"/>
</svg>
