<svg width="73" height="87" viewBox="0 0 73 87" fill="none" xmlns="http://www.w3.org/2000/svg">
<path d="M50.9825 77.2501V76.2501H49.9825C27.9225 76.2501 10.0532 58.4835 10.0532 36.5818V35.5818H9.05323H2.23236H1.23236V36.5818C1.23236 63.3423 23.0634 85.0282 49.9825 85.0282H50.9825V84.0282V77.2501Z" stroke="#3D8B97" stroke-width="2"/>
<path d="M50.9825 63.695V62.695H49.9825C35.4577 62.695 23.697 50.9989 23.697 36.5817C23.697 22.1708 35.4576 10.4736 49.9825 10.4736H50.9825V9.47361V2.69556V1.69556H49.9825C30.5976 1.69556 14.8751 17.3077 14.8751 36.5817C14.8751 55.8566 30.5975 71.473 49.9825 71.473H50.9825V70.473V63.695Z" stroke="#FFB55D" stroke-width="2"/>
<path d="M50.9825 50.1397V49.1397H49.9825C42.9919 49.1397 37.3398 43.5102 37.3398 36.5836C37.3398 29.6562 42.9917 24.0285 49.9825 24.0285C56.9744 24.0285 62.6263 29.6562 62.6263 36.5836V37.5839L63.6266 37.5836L70.4475 37.5816L71.4472 37.5813V36.5816C71.4472 24.7932 61.8344 15.2505 49.9825 15.2505C38.1317 15.2505 28.5179 24.7942 28.5179 36.5816C28.5179 48.3708 38.1315 57.9168 49.9825 57.9168H50.9825V56.9168V50.1397Z" stroke="#3D8B97" stroke-width="2"/>
</svg>
