<svg width="86" height="83" viewBox="0 0 86 83" fill="none" xmlns="http://www.w3.org/2000/svg">
<path d="M17.3738 45.8139H17.3741C26.3957 45.8172 33.7253 53.0786 33.7222 62.0669L17.3738 45.8139ZM17.3738 45.8139C17.3316 45.8139 17.2899 45.8147 17.2489 45.816M17.3738 45.8139L17.2489 45.816M17.2489 45.816C17.7379 37.5286 22.1968 30.316 28.769 25.9983C31.5722 30.917 36.8499 34.2639 42.9546 34.2639C49.0621 34.2639 54.3362 30.917 57.1382 25.9986C63.712 30.3187 68.1682 37.5305 68.6544 45.8159C68.6136 45.8147 68.5722 45.8139 68.5303 45.8139H68.5299C59.5083 45.8172 52.1871 53.0826 52.1838 62.0665V62.0669C52.1838 65.0552 52.9982 67.8517 54.415 70.2594C50.964 71.965 47.0734 72.9282 42.9546 72.9282C38.8329 72.9282 34.9445 71.9641 31.4922 70.2559C32.9081 67.851 33.7222 65.0549 33.7222 62.0672L17.2489 45.816ZM17.3734 78.3167H17.3738C20.0396 78.3167 22.5131 77.6319 24.7116 76.5149C30.0102 79.7915 36.2511 81.7052 42.9546 81.7052C49.6566 81.7052 55.8985 79.7936 61.1947 76.5151C63.393 77.632 65.8656 78.3167 68.5323 78.3167C77.5579 78.3167 84.8839 71.0473 84.8839 62.0669C84.8839 56.3806 81.918 51.4278 77.4867 48.5304C77.5125 48.1483 77.5391 47.7309 77.5391 47.3335C77.5391 34.1954 70.1162 22.8169 59.2408 17.0324C58.7268 8.51237 51.6485 1.76221 42.9546 1.76221C34.2607 1.76221 27.1804 8.51226 26.6644 17.0323C15.7868 22.8168 8.36696 34.1964 8.36696 47.3335C8.36696 47.7228 8.39444 48.1486 8.41963 48.5324C3.9923 51.43 1.02527 56.3795 1.02527 62.0669C1.02527 71.0475 8.35135 78.3135 17.3734 78.3167ZM42.9546 10.5433C47.1194 10.5433 50.4812 13.8918 50.4812 18.0151C50.4812 22.1374 47.1193 25.4869 42.9546 25.4869C38.7907 25.4869 35.428 22.1374 35.428 18.0151C35.428 13.89 38.7905 10.5433 42.9546 10.5433ZM17.3744 69.5387C13.2097 69.536 9.84752 66.1889 9.84716 62.0675C9.84986 57.9436 13.21 54.595 17.3738 54.591C21.5383 54.595 24.9003 57.9413 24.9003 62.0669C24.9003 66.1889 21.5379 69.5383 17.3744 69.5387ZM68.5323 69.5387C64.368 69.5387 61.0088 66.1897 61.0088 62.0669C61.0088 57.9433 64.3698 54.5951 68.5323 54.5951C72.6976 54.5951 76.062 57.944 76.062 62.0669C76.062 66.189 72.7004 69.5387 68.5323 69.5387Z" stroke="#308390" stroke-width="2"/>
<path d="M42.9545 37.1836C37.3211 37.1836 32.7454 41.7217 32.7454 47.3335C32.7454 52.9463 37.3212 57.4834 42.9545 57.4834C48.5868 57.4834 53.1635 52.9463 53.1635 47.3335C53.1635 41.7207 48.5868 37.1836 42.9545 37.1836ZM42.9545 49.3832C41.8032 49.3832 40.8851 48.4622 40.8851 47.3335C40.8851 46.2055 41.8034 45.2838 42.9545 45.2838C44.1055 45.2838 45.0238 46.2055 45.0238 47.3335C45.0238 48.4622 44.1057 49.3832 42.9545 49.3832Z" stroke="#FFB55D" stroke-width="2"/>
</svg>
