<svg width="31" height="31" viewBox="0 0 31 31" fill="none" xmlns="http://www.w3.org/2000/svg">
<path d="M31 15.5C31 19.6109 29.367 23.5533 26.4602 26.4602C23.5533 29.367 19.6109 31 15.5 31C11.3891 31 7.44666 29.367 4.53984 26.4602C1.63303 23.5533 0 19.6109 0 15.5C0 11.3891 1.63303 7.44666 4.53984 4.53984C7.44666 1.63303 11.3891 0 15.5 0C19.6109 0 23.5533 1.63303 26.4602 4.53984C29.367 7.44666 31 11.3891 31 15.5ZM16.0561 11.4429C14.5487 12.0706 11.5339 13.3687 7.01569 15.3372C6.28331 15.6279 5.89775 15.9146 5.86287 16.1936C5.80475 16.6644 6.39569 16.8504 7.19975 17.1042L7.53881 17.2108C8.32931 17.4685 9.39494 17.7688 9.94712 17.7804C10.4509 17.7921 11.0108 17.5867 11.6289 17.1604C15.8507 14.3104 18.0304 12.8708 18.166 12.8398C18.2629 12.8166 18.3985 12.7894 18.4876 12.8708C18.5787 12.9503 18.569 13.1033 18.5593 13.144C18.5012 13.3939 16.182 15.5484 14.9827 16.6644C14.6087 17.0132 14.3433 17.2593 14.2891 17.3154C14.1696 17.4375 14.0482 17.5577 13.9248 17.6758C13.1886 18.3849 12.6383 18.9158 13.9539 19.7838C14.5874 20.2023 15.0951 20.5452 15.6007 20.8901C16.151 21.266 16.7013 21.6399 17.4142 22.1088C17.5944 22.2251 17.7688 22.351 17.9374 22.4711C18.5787 22.9284 19.158 23.3391 19.8691 23.2733C20.2837 23.2345 20.7119 22.847 20.9289 21.6845C21.4423 18.9391 22.4517 12.9929 22.6842 10.5419C22.6984 10.3382 22.69 10.1335 22.6591 9.93162C22.6408 9.76872 22.562 9.61864 22.4382 9.51119C22.2619 9.38949 22.0517 9.32644 21.8376 9.331C21.2563 9.34069 20.3592 9.65263 16.0561 11.4429Z" fill="#B8B8B8"/>
</svg>
