<svg width="45" height="33" viewBox="0 0 45 33" fill="none" xmlns="http://www.w3.org/2000/svg">
<path d="M22.6434 0.62207H22.8938C25.2056 0.630508 36.9197 0.714883 40.0781 1.56426C41.033 1.82348 41.903 2.32876 42.6014 3.02959C43.2998 3.73043 43.802 4.60228 44.0578 5.55801C44.3419 6.62676 44.5416 8.04145 44.6766 9.50114L44.7047 9.79364L44.7666 10.5249L44.7891 10.8174C44.9719 13.388 44.9944 15.7955 44.9972 16.3214V16.5324C44.9944 17.078 44.9691 19.6486 44.7666 22.3261L44.7441 22.6215L44.7188 22.914C44.5781 24.5227 44.37 26.1202 44.0578 27.2958C43.8027 28.2519 43.3008 29.1242 42.6023 29.8252C41.9038 30.5261 41.0333 31.0311 40.0781 31.2896C36.8156 32.1671 24.4153 32.229 22.6969 32.2318H22.2975C21.4284 32.2318 17.8341 32.2149 14.0653 32.0855L13.5872 32.0686L13.3425 32.0574L12.8616 32.0377L12.3806 32.018C9.25875 31.8802 6.28594 31.658 4.91625 31.2868C3.96138 31.0286 3.09112 30.524 2.39266 29.8235C1.6942 29.1231 1.19207 28.2514 0.936563 27.2958C0.624375 26.123 0.41625 24.5227 0.275625 22.914L0.253125 22.6186L0.230625 22.3261C0.0918214 20.4204 0.0149059 18.5106 0 16.5999L0 16.2539C0.005625 15.6493 0.028125 13.5596 0.18 11.2533L0.199688 10.9636L0.208125 10.8174L0.230625 10.5249L0.2925 9.79364L0.320625 9.50114C0.455625 8.04145 0.655313 6.62395 0.939375 5.55801C1.19445 4.60189 1.69639 3.72963 2.39488 3.02868C3.09337 2.32772 3.96385 1.82271 4.91906 1.56426C6.28875 1.19863 9.26156 0.973633 12.3834 0.833008L12.8616 0.81332L13.3453 0.796446L13.5872 0.788008L14.0681 0.768321C16.7448 0.682187 19.4226 0.634369 22.1006 0.624883H22.6434V0.62207ZM18 9.6502V23.2008L29.6916 16.4283L18 9.6502Z" fill="#B8B8B8"/>
</svg>
